# xmcd CD database file
#
# Track frame offsets:
#	150
#	16622
#	29403
#	52071
#	61651
#	80266
#	92476
#	111375
#	125462
#	140557
#	157994
#	182667
#	194252
#	212441
#	224094
#	241603
#	259843
#
# Disc length: 3665 seconds
#
# Revision: 0
# Processed by: cddbd v1.5.2PL0 Copyright (c) Steve Scherf et al.
# Submitted via: CDex 1.70beta2
#
DISCID=e40e4f11
DTITLE=Count Basie - Stages
DYEAR=2005
DGENRE=Jazz
TTITLE0=Jumpin at the Woodside
TTITLE1=OneO'Clock Jump
TTITLE2=Rock-a-Bye Basie
TTITLE3=Basie Boogie
TTITLE4=One O'Clock Jump V2
TTITLE5=Jazz Me Blues
TTITLE6=Let's Jump
TTITLE7=Blues-o-Rama
TTITLE8=Two for the Blues
TTITLE9=Sweet and Purty
TTITLE10=Corner Pocket
TTITLE11=Fancy Meeting You
TTITLE12=Lil Darlin
TTITLE13=H.R.H
TTITLE14=Vine Street Rumble
TTITLE15=Pleasinly Plump
TTITLE16=Jumpin at the Woodside V2
EXTD=YEAR: 2005
EXTT0=
EXTT1=
EXTT2=
EXTT3=
EXTT4=
EXTT5=
EXTT6=
EXTT7=
EXTT8=
EXTT9=
EXTT10=
EXTT11=
EXTT12=
EXTT13=
EXTT14=
EXTT15=
EXTT16=
PLAYORDER=
